Coordinates
version=1
nRows=17
nColumns=40
inDegrees=yes

Units are S.I. units (second, meters, Newtons, ...)
Angles are in degrees.

endheader
time	pelvis_tilt	pelvis_list	pelvis_rotation	pelvis_tx	pelvis_ty	pelvis_tz	hip_flexion_r	hip_adduction_r	hip_rotation_r	knee_angle_r	knee_angle_r_beta	ankle_angle_r	subtalar_angle_r	mtp_angle_r	hip_flexion_l	hip_adduction_l	hip_rotation_l	knee_angle_l	knee_angle_l_beta	ankle_angle_l	subtalar_angle_l	mtp_angle_l	lumbar_extension	lumbar_bending	lumbar_rotation	arm_flex_r	arm_add_r	arm_rot_r	elbow_flex_r	pro_sup_r	wrist_flex_r	wrist_dev_r	arm_flex_l	arm_add_l	arm_rot_l	elbow_flex_l	pro_sup_l	wrist_flex_l	wrist_dev_l
     53.04500000	     -7.25523922	     -3.80863963	      1.09960925	      0.96166344	      0.91518394	      0.43591288	      9.40350087	     -3.99814342	     -8.56021975	     39.03108405	     39.03108405	     12.72080556	     -2.35200129	    -14.78846991	     30.50646237	     -5.30983638	     -1.41814538	     26.62783170	     26.62783170	      6.56661728	    -11.91147417	      3.30618815	     -9.96469560	      3.54252119	      3.27780718	     44.26421161	    -13.01463214	      2.80936883	    118.84078465	     43.96012202	      0.00000000	      0.00000000	    -10.82743024	     -6.92057585	      8.89409636	     26.24848289	     44.08441613	      0.00000000	      0.00000000
     53.05628571	     -7.29717137	     -3.60484857	      1.01158502	      0.96114116	      0.91641832	      0.43330794	     11.17177910	     -4.72310883	     -8.14127457	     42.58543557	     42.58543557	     10.40499156	     -3.70262987	    -15.67069233	     29.74036654	     -4.97335806	     -1.62594618	     26.20422185	     26.20422185	      7.03674678	    -11.79769301	      3.09809894	     -9.89198823	      3.40946629	      3.23866517	     42.49364046	    -13.19104998	      2.96140310	    118.47260919	     43.96558970	      0.00000000	      0.00000000	     -9.71709584	     -7.17216042	      8.71521450	     26.89952325	     44.14384242	      0.00000000	      0.00000000
     53.06757143	     -7.24662466	     -3.42599421	      0.93705894	      0.96057893	      0.91767741	      0.43087913	     12.86627104	     -5.38565264	     -7.75786412	     46.04809441	     46.04809441	      7.87424316	     -5.07038230	    -16.15853817	     28.89534338	     -4.66933665	     -1.82246692	     25.80816074	     25.80816074	      7.49774585	    -11.67669365	      2.85030996	     -9.91710320	      3.32761129	      3.21105923	     40.66614543	    -13.27956083	      3.14112939	    117.97786843	     43.97229319	      0.00000000	      0.00000000	     -8.48717652	     -7.44705142	      8.50793417	     27.65053904	     44.20556913	      0.00000000	      0.00000000
     53.07885714	     -7.34110696	     -3.27097303	      0.74651471	      0.95986654	      0.91864797	      0.42883147	     14.81071425	     -5.87858322	     -7.12693517	     49.43908262	     49.43908262	      4.99742559	     -6.95106617	    -16.55094190	     28.16807802	     -4.44598447	     -2.10153938	     25.32651650	     25.32651650	      7.85000861	    -11.58490579	      2.51660577	     -9.76833686	      3.20140531	      3.33590490	     38.58471032	    -13.62906271	      3.14089407	    117.22330914	     43.99475415	      0.00000000	      0.00000000	     -7.40278702	     -7.79597231	      8.15331722	     28.66741044	     44.28990652	      0.00000000	      0.00000000
     53.09014286	     -7.25792706	     -3.24072117	      0.63465989	      0.95916774	      0.91966039	      0.42692083	     16.43571915	     -6.15273799	     -6.62072979	     52.40420118	     52.40420118	      1.35392584	     -9.59247112	    -18.65080559	     27.27941469	     -4.33477487	     -2.28257851	     24.82753672	     24.82753672	      7.63251792	    -11.73175945	      0.87797301	     -9.86540532	      3.23599960	      3.40765972	     36.52912654	    -13.74340754	      2.84417919	    116.31530306	     44.10003088	      0.00000000	      0.00000000	     -6.66450511	     -8.10407925	      6.36953272	     31.21396612	     44.68924475	      0.00000000	      0.00000000
     53.10142857	     -7.24064639	     -3.13923877	      0.48475167	      0.95828489	      0.92051396	      0.42512056	     18.26266261	     -6.52080495	     -6.17376957	     55.50946110	     55.50946110	     -1.10683262	    -11.16929777	    -17.32481553	     26.54071474	     -4.17841953	     -2.54901802	     24.50752664	     24.50752664	      8.01203098	    -11.56075503	      0.63060941	     -9.86052233	      3.21223870	      3.43042096	     34.50603072	    -13.88897463	      3.01405151	    114.86862443	     44.14111202	      0.00000000	      0.00000000	     -5.34872641	     -8.43621401	      6.04041274	     32.15997529	     44.77140283	      0.00000000	      0.00000000
     53.11271429	     -7.17445508	     -2.99452719	      0.29951656	      0.95737002	      0.92128681	      0.42342529	     20.02239884	     -6.91509962	     -5.75225209	     58.39730788	     58.39730788	     -3.31308168	    -12.55091801	    -15.92592304	     25.77537501	     -3.99205957	     -2.83673086	     24.24760178	     24.24760178	      8.39815962	    -11.42509925	      0.39761482	     -9.92342637	      3.14221263	      3.42717552	     32.37942595	    -13.88466521	      3.28037175	    113.38055477	     44.17532843	      0.00000000	      0.00000000	     -4.02926359	     -8.82131389	      5.75476346	     33.15375539	     44.83878774	      0.00000000	      0.00000000
     53.12400000	     -7.11464434	     -2.96882869	      0.09803469	      0.95634606	      0.92204590	      0.42192674	     21.71450492	     -7.07985777	     -5.36132070	     60.93829651	     60.93829651	     -5.15355444	    -13.91615309	    -13.92362967	     25.06598100	     -3.93478193	     -3.06719661	     24.04551520	     24.04551520	      8.80235640	    -11.31286037	      0.11381864	     -9.98043230	      3.17762566	      3.51682528	     30.32581634	    -14.07632272	      3.34763414	    111.31572461	     44.23558577	      0.00000000	      0.00000000	     -2.67918106	     -9.17331054	      5.41186680	     34.49158158	     44.91468850	      0.00000000	      0.00000000
     53.13528571	     -6.97891363	     -2.92390905	     -0.07287665	      0.95534601	      0.92280492	      0.42039414	     23.26121739	     -7.28323058	     -5.08382399	     63.19596002	     63.19596002	     -6.53182724	    -15.02615105	    -12.10606399	     24.32177619	     -3.85040763	     -3.30500814	     23.93587784	     23.93587784	      9.17178003	    -11.23731600	     -0.11741409	    -10.13596688	      3.23680484	      3.55998056	     28.22468529	    -14.09175736	      3.52599178	    109.19526781	     44.29220930	      0.00000000	      0.00000000	     -1.24001591	     -9.57341985	      5.11087441	     35.80697990	     44.98286227	      0.00000000	      0.00000000
     53.14657143	     -6.83416558	     -3.01127407	     -0.25212049	      0.95420014	      0.92347753	      0.41911330	     24.95950691	     -7.28908821	     -4.84366256	     65.60964652	     65.60964652	     -5.33880164	    -14.54823813	     -4.28820256	     23.62415092	     -3.93619341	     -3.52960154	     23.88677493	     23.88677493	      9.52821273	    -11.04952903	     -0.63620323	    -10.26359434	      3.37880587	      2.72678839	     27.26011224	    -13.27444383	      3.73414778	    104.68240638	     44.46462338	      0.00000000	      0.00000000	     -1.12351409	    -10.30675312	      4.23205795	     39.66280125	     45.16915197	      0.00000000	      0.00000000
     53.15785714	     -6.73132571	     -3.03340316	     -0.47643597	      0.95309220	      0.92415329	      0.41785434	     26.40860583	     -7.35405569	     -4.67926714	     67.18572440	     67.18572440	     -5.81805840	    -15.37387484	     -2.72132281	     22.92255511	     -3.92881026	     -3.73112644	     23.76962290	     23.76962290	      9.95053055	    -11.00964845	     -0.66598964	    -10.37113609	      3.49350050	      2.76123532	     25.44998201	    -13.38056826	      4.03374271	    101.58714215	     44.56670879	      0.00000000	      0.00000000	      0.36316970	    -10.70002611	      3.93912600	     41.01649085	     45.26760990	      0.00000000	      0.00000000
     53.16914286	     -6.55942198	     -3.06040826	     -0.73031314	      0.95201285	      0.92488200	      0.41674416	     27.70919188	     -7.36600758	     -4.50687221	     68.42746116	     68.42746116	     -5.81777546	    -15.93091135	     -1.31549852	     22.18550302	     -3.93871921	     -3.90419579	     23.74572440	     23.74572440	     10.43931773	    -10.99634583	     -0.61306452	    -10.55442715	      3.58638529	      2.66760116	     23.86843678	    -13.27911130	      4.26239452	     98.00232921	     44.68729094	      0.00000000	      0.00000000	      1.66999757	    -11.21670824	      3.85624469	     42.73783056	     45.34826953	      0.00000000	      0.00000000
     53.18042857	     -6.40935858	     -3.11682177	     -1.01634440	      0.95093539	      0.92555497	      0.41576228	     28.93484277	     -7.32621203	     -4.40069933	     69.26942644	     69.26942644	     -5.76337610	    -16.48524171	     -0.92752236	     21.43828077	     -3.97878402	     -4.08455284	     23.65848665	     23.65848665	     10.85837655	    -11.04196311	     -0.61495832	    -10.74105691	      3.71191331	      3.06102571	     21.95484797	    -13.73748294	      4.45385196	     95.00270508	     44.77387910	      0.00000000	      0.00000000	      3.42560465	    -11.53246111	      3.73955136	     44.10313322	     45.40394059	      0.00000000	      0.00000000
     53.19171429	     -6.26994404	     -3.17523017	     -1.31511301	      0.94988951	      0.92619071	      0.41498453	     30.12313841	     -7.25647760	     -4.33992602	     69.81574255	     69.81574255	     -5.20914100	    -16.71844773	      0.06287582	     20.70847448	     -4.03820860	     -4.29199075	     23.59345065	     23.59345065	     11.37858566	    -11.00791113	     -0.41761478	    -10.85411565	      3.80670839	      2.70179386	     20.87637774	    -13.24427767	      4.72418754	     90.19766292	     44.92645688	      0.00000000	      0.00000000	      4.48124003	    -12.32611641	      4.08567461	     46.19811102	     45.45036348	      0.00000000	      0.00000000
     53.20300000	     -6.13168510	     -3.21744168	     -1.62254234	      0.94890085	      0.92675477	      0.41429097	     31.20279072	     -7.20973896	     -4.34787401	     69.96288863	     69.96288863	     -4.79175370	    -16.93975279	      0.06079608	     19.95297823	     -4.07443714	     -4.50441828	     23.47807651	     23.47807651	     11.75440223	    -11.06451775	     -0.44534754	    -11.06378293	      3.89732736	      3.11694017	     18.77737376	    -13.68347999	      5.04909861	     87.64623832	     44.99019857	      0.00000000	      0.00000000	      6.25408414	    -12.57712228	      3.92299478	     47.42764689	     45.50235483	      0.00000000	      0.00000000
     53.21428571	     -6.01449815	     -3.29728545	     -1.97175285	      0.94788529	      0.92730703	      0.41390410	     32.23130727	     -7.04492102	     -4.34935240	     69.78100295	     69.78100295	     -4.09527907	    -16.93363171	      0.49783462	     19.19301073	     -4.18232472	     -4.77977077	     23.33126190	     23.33126190	     12.23461386	    -10.98864436	     -0.31786306	    -11.09662514	      3.96828372	      2.88756725	     18.25490502	    -13.15410273	      5.01583866	     81.54776777	     45.18668334	      0.00000000	      0.00000000	      7.38304730	    -13.47637854	      4.49209134	     49.69574168	     45.53131218	      0.00000000	      0.00000000
     53.22557143	     -5.90287924	     -3.37481521	     -2.32677640	      0.94692999	      0.92777525	      0.41364175	     33.17991879	     -6.88299618	     -4.41271962	     69.26914340	     69.26914340	     -3.52288979	    -16.82735010	      0.63806854	     18.41457363	     -4.29014092	     -5.06910258	     23.15079602	     23.15079602	     12.66828740	    -10.90519409	     -0.30524493	    -11.21431185	      4.05731190	      2.87713347	     17.22945455	    -13.07149812	      5.41568657	     76.78697156	     45.32000511	      0.00000000	      0.00000000	      8.63946219	    -14.18902056	      4.68568234	     51.80324753	     45.59737624	      0.00000000	      0.00000000
